<?xml version="1.0" encoding="utf-8"?>
<!-- Generator: Adobe Illustrator 22.1.0, SVG Export Plug-In . SVG Version: 6.00 Build 0)  -->
<svg version="1.1" id="Camada_1" xmlns="http://www.w3.org/2000/svg" xmlns:xlink="http://www.w3.org/1999/xlink" x="0px" y="0px"
	 viewBox="0 0 1920 1112" style="enable-background:new 0 0 1920 1112;" xml:space="preserve">
<style type="text/css">
	.st0{fill:#FFFFFF;stroke:#212529;stroke-linecap:round;stroke-miterlimit:10;}
	.st1{fill:#FFF56B;stroke:#212529;stroke-linecap:round;stroke-miterlimit:10;}
	.st2{fill:none;stroke:#212529;stroke-linecap:round;stroke-miterlimit:10;}
	.st3{fill:#FFF56B;}
	.st4{fill:#212529;stroke:#212529;stroke-linecap:round;stroke-miterlimit:10;}
	.st5{fill:#212529;}
	.st6{fill:#FAFFFB;}
	.st7{fill:#FFFFFF;stroke:#212529;stroke-width:3;stroke-linecap:round;stroke-miterlimit:10;}
	.st8{fill:none;stroke:#212529;stroke-width:3;stroke-linecap:round;stroke-miterlimit:10;}
	.st9{fill:none;stroke:#FFFFFF;stroke-width:5;stroke-linecap:round;stroke-linejoin:round;}
	.st10{fill:none;stroke:#FFFFFF;stroke-width:3;stroke-linecap:round;stroke-linejoin:round;}
</style>
<g>
	<path class="st0" d="M1782.2,400.3l0.1-81l0.1-40.4c0-9.2-7.4-16.6-16.5-16.6l-284.7-0.5c-9.2,0-16.5,7.5-16.5,16.5l-0.1,40.4
		l-0.8,501.9c0,9.2,7.4,16.5,16.5,16.5l284.7,0.5c9.2,0,16.5-7.4,16.5-16.5l0.6-337.1c2.7-1,4.6-3.4,4.6-6.5l0.1-70.9
		C1786.8,403.8,1784.9,401.3,1782.2,400.3z"/>
	<g>
		<path class="st0" d="M1622.7,823.2L1622.7,823.2c-8.6,0-15.6-7-15.6-15.6l0,0c0-8.6,7-15.6,15.6-15.6l0,0c8.6,0,15.6,7,15.6,15.6
			l0,0C1638.3,816.3,1631.4,823.2,1622.7,823.2z"/>
	</g>
	<g>
		<path class="st0" d="M1566,296.3L1566,296.3c-3.5,0-6.3-2.9-6.3-6.3l0,0c0-3.5,2.9-6.3,6.3-6.3l0,0c3.5,0,6.3,2.9,6.3,6.3l0,0
			C1572.4,293.5,1569.5,296.3,1566,296.3z"/>
	</g>
	<path class="st0" d="M1655.5,292.4l-62.9-0.1c-1.2,0-2.3-1.1-2.3-2.3c0-1.2,1.1-2.3,2.3-2.3l62.9,0.1c1.2,0,2.3,1.1,2.3,2.3
		C1657.8,291.4,1656.8,292.4,1655.5,292.4z"/>
	
		<rect x="1394.9" y="394.4" transform="matrix(1.580688e-03 -1 1 1.580688e-03 1073.2657 2169.6804)" class="st1" width="456.5" height="305.9"/>
</g>
<line class="st2" x1="1920.5" y1="986.5" x2="-1" y2="986.5"/>
<line class="st2" x1="1920.5" y1="979.5" x2="639" y2="979.5"/>
<line class="st2" x1="279" y1="979.5" x2="-1" y2="979.5"/>
<line class="st2" x1="1920.5" y1="972.5" x2="869" y2="972.5"/>
<g>
	<path class="st1" d="M1749.9,658.6c0,0,1,2.8,4.3,4.2l4.1-2l-4.4-6.6L1749.9,658.6z"/>
	<path class="st3" d="M1728.7,713.1l9.1-14.1l-0.2,8.3l-5.9,7.4c0,0-0.8-0.8-2.9-1.4"/>
	<path class="st1" d="M1793.7,659.3c0,0-3.6,8.7,3.3,9.5c0,0-4.1,4.8-7.7,0c0,0-2.1,4.4,2.1,6.5c0,0-6.2,5.5-10.6,0l-0.8-2.1
		c0,0,4.8-2.1,5.8-7.7l3.3-8.8L1793.7,659.3z"/>
	<path class="st0" d="M1798.6,1000.3c-0.8,2.7-0.5,3.7-0.8,5.6c-0.4,2.2-3.2,5.3-4.5,7.1c-1.4,2-3.5,5.3,4.8,5.4
		c8.9,0.2,14.1-0.4,12.7-5.3c-1.5-4.9-1.1-9.2-1-10.7s0-3.2-1-4.2C1807.9,997.2,1799.9,995.4,1798.6,1000.3z"/>
	<path class="st2" d="M1728.4,740.4c3.1-1.9,9.6-7.3,21.6-23.9c7.3-10.1,9.8-15,11.7-18.3c3.3-6,0.4-11.2-3.8-12.2
		c-5.5-1.3-11.4-0.2-17.7,9.3c-11.4,17-16.7,27-19.1,31.4C1716.2,735.6,1724.6,742.8,1728.4,740.4z"/>
	<path class="st0" d="M1781,665.8c0.1,0.6,1.3,12.4,1.6,21.4c0.1,4.5-4.4,8.7-8.8,8.8c-0.1,0-0.1,0-0.2,0c-4.4,0-9.5-3.9-9.1-8.3
		c0.7-7.9,0.2-16,0.2-16.1L1781,665.8z"/>
	<path class="st1" d="M1802.2,715.7c-7.9,26.1-19,52.4-9.9,76c0.3,0.7-0.2,1.5-1,1.5h-52.8c0,0-0.6-29.5-2.1-88.3
		c-0.2-7.3,5.2-13.8,12.9-17.9c4.6-2.4,12.9-3.6,16.3-3.6h11.3c3.8,0,8.1,0.8,11.9,1.5C1804.8,687.8,1806.9,700.3,1802.2,715.7z"/>
	<path class="st0" d="M1737.4,723c-3.2-1.2-8.4-3-11-4.2s-5.6,4.8-4.8,6.5c1.2,2.6,7.5,8.4,10.8,6.6c3.3-1.8,5.8,0.8,8.2-1.6
		C1743,728,1742.8,724.9,1737.4,723z"/>
	<path class="st4" d="M1802.3,900.5C1802.3,900.4,1802.3,900.4,1802.3,900.5c-0.1-0.5-0.1-1-0.2-1.4c-1.7-11.8-6.1-75.8-7.2-85
		c0.1-5.4-0.3-12-1.9-20c-0.2-1-1.1-1.7-2-1.7h-52.7c0,0-1.7,16.5-0.9,37.3l0,0c2.2,22.2,3,61.6,3.9,70.6c0.2,2.1,0.5,4.1,0.9,5.8
		c0.1,1.1,0.2,2.1,0.5,3.3c4.1,19.4,15.2,57.7,21,95.5c0,0,0.7-1.6,2.9-2c1.4-0.3,4.3-0.4,8.2,4.1c-4-28.3-0.5-80.1-10.7-102.9
		c1.6-18.3,0.7-57.7,0.8-73.8c0,0.7,0.1,1.4,0.2,2.1c1.1,11.9,8.6,49.9,14.6,71.6c0,1.7,0.3,3.5,0.8,5.5
		c4.8,19.2,15.8,74.9,17.6,92.6c0,0,1.9-2.7,4.1-2.8c4-0.1,5.4,3.1,6.8,3.5c1,0.3,0.9,0.4,1-1.3
		C1810.6,988.4,1811.4,920.8,1802.3,900.5z"/>
	<path class="st0" d="M1763.9,1004.3c-0.7,1.3-6.2,4.3-10.8,6.3c-4.6,1.9-14.4,2.9-9,4.7c5.5,1.8,11.8,0.7,15,0.2s8.6-0.6,12.3-0.6
		c5,0,5.1-0.3,4.4-5.7C1774.8,1001.6,1766.2,1000.1,1763.9,1004.3z"/>
	<path class="st0" d="M1789.9,652.4c-0.8-0.3-1.7-0.1-2.6,0.5c0.6-20.5-11.3-21.1-18-21.1c-7.1,0-14,6.8-14.8,12.4
		c-1.5,11,0,21.4,1.2,25.8c1.2,4.3,5,9.7,10.1,9.7c4.8,0,11.1-1.9,15.5-6c2.9-2.7,4-4.7,4.8-8.6c1.7-0.4,3.5-2.3,4.6-5.1
		C1792,656.5,1791.7,653.1,1789.9,652.4z"/>
	<path class="st1" d="M1795.9,733.8c0-0.1,3-7.4,4.6-12c4.2-12.4,4.3-16.5,5.1-20.4c1.4-7-4.4-10.4-8.1-11
		c-5.9-1-11.9,1.9-14.2,10.3c-2.7,9.6-5.4,22.2-5.8,24.2"/>
	<path class="st1" d="M1793.7,659.7c2.3,0.1,3.6-0.1,6.6-0.7c-10.9-5.5,4.4-23-13.2-25.1c0,0-0.7-17.8-32.8-1.1
		c-2.2,0.9-5.8,1.8-7.1-3.7c0,0-5.2,8.9,5,9.2c0,0-8.8,8.8-17.5,3.3c0,0,3.5,10.7,16.4,6.5c0,0-1.1,5.5-12.1,5.5
		c0,0,14.2,14.2,36.1-6.5c0,0,1.2,5.6,6.3,9.4c0.2,1.9,0.1,4-0.9,5.9c0,0,3.3-0.7,5.8-3.5c1.7,0.5,4.3,1,4.3,1"/>
	<line class="st2" x1="1729" y1="713.2" x2="1731.7" y2="714.6"/>
	<path class="st0" d="M1795.9,733.8c-4.6,11.8-8.7,19.2-11.4,20.5c-0.8,0.4-1.9,0.4-3,0.1c-6.8-0.5-14.6-4.1-28.2-12.7
		c-9.9-6.3-13.7-8.1-16-12.6c-1.9-3.6,1.4-6.1,4.3-4.6c3.5,1.9,23,5.3,34.3,8.6l1.7-8.1C1777.4,724.9,1788.7,726.7,1795.9,733.8z"/>
	<path class="st0" d="M1760.2,675.5c-1.7-2-7.3-7.5-11.9-6.5c-3.1,0.7,2.3,10.1,5.8,15.4c-7,9.2-29.4,37.3-33.5,43.3
		c-5.6,7.9,5.5,17.9,10.7,13.2c5.7-5.3,15.6-23.9,23.5-37.5c5-8.5,6.4-12.8,6.8-16.8C1763.2,683.9,1763.2,679.1,1760.2,675.5z"/>
</g>
<g>
	<path class="st1" d="M193.5,975.6c7.1-4.5-2-18.3-18.4-19.6c0,0-1.8,7.2-0.1,13.7C176.3,975.2,183.6,981.9,193.5,975.6z"/>
	<path class="st1" d="M203,976.7c8.2-1.6,4.8-17.7-10-25c0,0-4.3,6.1-5.1,12.7C187.2,970.1,191.5,979,203,976.7z"/>
	<path class="st1" d="M208.7,977.8c7.3,2,11.1-12.4,2.1-24.3c0,0-5.9,3.2-9.3,8.2C198.6,966,198.5,975,208.7,977.8z"/>
	<path class="st1" d="M211.9,976c5.1,4.5,13.8-5.6,11.2-18.8c0,0-6.1,0.2-10.7,2.9C208.4,962.5,204.8,969.7,211.9,976z"/>
	<path class="st1" d="M226.6,942.1c28-11,5.6-65.6-51.4-81.7c0,0-11.2,24.3-9.9,48.1C166.4,928.8,187.5,957.4,226.6,942.1z"/>
	<path class="st1" d="M180.9,867.3c5.2,3.8,9.6,8.4,13,13.7c1,1.2,1.7,2.6,2.5,4s1.7,2.6,2.3,4.1c0.7,1.4,1.4,2.8,2,4.2l1,2.1
		l0.8,2.2c2.3,5.8,4.1,11.8,5.5,17.9c0.6,3.1,1.3,6.1,1.9,9.2l1.1,9.4c0.2,1.6,0.5,3.1,0.6,4.7l0.2,4.7c0.2,3.2,0.3,6.3,0.5,9.5
		c-0.1,6.4,0,12.7-0.2,19.1c-0.2,3.2-0.4,6.4-0.5,9.6l-0.2,4.8l-0.1,2.4l-0.2,2.4l-0.8,9.7l-0.4,4.9l-0.2,4.9l0.5,0.1l3.4-19.1
		l0.4-2.4l0.3-2.4l0.5-4.8l1.1-9.7l0.3-2.4l0.1-2.4l0.2-4.9l0.4-9.7l-0.4-9.7l-0.2-4.9c-0.1-1.6-0.4-3.2-0.5-4.8l-1.3-9.7l-2.1-9.5
		c-1.7-6.3-3.7-12.5-6.4-18.4l-1-2.2l-1.2-2.1l-2.4-4.3c-0.8-1.4-1.8-2.7-2.7-4s-1.8-2.7-2.9-3.9c-4.1-5.1-8.9-9.6-14.8-12.6
		L180.9,867.3z"/>
	<path class="st1" d="M209,915.3c-21.3-8.4-4.3-50,39.1-62.2c0,0,8.5,18.5,7.6,36.6C254.8,905.1,238.8,927,209,915.3z"/>
	<path class="st1" d="M243.5,858.1c-4.4,5.1-8,10.8-11.5,16.5c-1.7,2.9-3.3,5.9-4.8,8.9L225,888l-2.1,4.6
		c-5.6,12.3-9.8,25.1-13.1,38.2c-0.8,3.3-1.4,6.6-2.1,9.9l-1,4.9l-0.8,5l-1.4,10c-0.3,3.3-0.6,6.7-0.8,10.1l-0.4,5
		c-0.1,1.7-0.1,3.4-0.1,5l-0.2,10.1c0,3.4,0.3,6.7,0.5,10s0.4,6.7,0.7,10h0.4c0.1-6.7,0-13.3,0.3-20l0.6-10c0.1-1.7,0.2-3.3,0.3-5
		l0.6-5l1.1-9.9l1.6-9.9l0.8-4.9l1-4.9c0.7-3.2,1.4-6.5,2.2-9.7c3.2-12.9,7.2-25.7,12.2-38s10.9-24.4,18.4-35.4L243.5,858.1z"/>
	<path class="st1" d="M197.3,891c40.2-12.3,14.8-91-63-119.5c0,0-18.2,32.7-19,66C114.6,866,141,908.2,197.3,891z"/>
	<path class="st1" d="M141.4,781.7c1.5,2,2.9,4.2,4.2,6.3c1.4,2.1,2.7,4.2,4,6.4c1.3,2.1,2.6,4.3,3.8,6.5s2.5,4.4,3.6,6.6
		c2.3,4.5,4.7,8.9,6.7,13.5c1,2.3,2.1,4.5,3.2,6.8l2.9,6.9l2.9,6.9l2.6,7l2.6,7c0.9,2.3,1.5,4.7,2.3,7.1c0.7,2.4,1.5,4.7,2.3,7.1
		l1.2,3.6c0.4,1.2,0.6,2.4,1,3.6l3.8,14.5c1.1,4.8,2.1,9.7,3.2,14.6c0.5,2.4,1.1,4.9,1.5,7.3c0.4,2.5,0.7,4.9,1.1,7.4
		c0.8,4.9,1.7,9.8,2.4,14.8c0.5,5,1,9.9,1.6,14.9l0.8,7.5l0.4,7.5l0.9,15.1c0.6,10.1,0.2,20.1,0.8,30.3h0.6l0.9-15.2l0.4-7.6
		c0.2-2.5,0.3-5.1,0.2-7.6l-0.1-15.2l-0.1-7.6l-0.6-7.6l-1.1-15.2c-0.6-5-1.4-10-2-15.1l-1-7.5c-0.4-2.5-1-5-1.5-7.5
		c-1-5-2-9.9-3.1-14.9c-4.9-19.7-11.5-38.9-20-57.3c-8.6-18.3-18.7-36.1-31.9-51.6L141.4,781.7z"/>
	<path class="st1" d="M174.4,927.6c24.6-17.8-11.1-65.6-70.9-66.9c0,0-4.8,26.6,2.4,49.5C112.2,929.8,140,952.5,174.4,927.6z"/>
	<path class="st1" d="M110.8,865.9c6,4.1,11.7,8.7,16.9,13.7l4,3.7l3.8,3.9c2.6,2.5,4.9,5.3,7.2,8c9.3,11,17.4,22.8,24.6,35.3
		l5.2,9.5c0.9,1.6,1.7,3.2,2.4,4.8l2.3,4.9l2.3,4.9c0.4,0.8,0.8,1.6,1.2,2.4l1,2.5c1.3,3.4,2.7,6.7,4.1,10c1.5,3.3,2.6,6.8,3.8,10.2
		l3.6,10.3c2.3,6.9,4.1,13.9,6.5,20.9l0.4-0.1c-1.6-7.1-3.1-14.3-4.9-21.4l-3.1-10.5c-1.1-3.5-2-7-3.4-10.4l-3.8-10.3l-1-2.6
		c-0.3-0.8-0.7-1.7-1.1-2.5l-2.3-5l-2.3-5c-0.7-1.7-1.5-3.3-2.4-4.9l-5.2-9.7c-7.4-12.6-15.9-24.6-25.8-35.4c-2.5-2.7-5-5.4-7.7-7.8
		l-4-3.8l-4.2-3.5c-5.7-4.6-11.6-9-18.1-12.4L110.8,865.9z"/>
	<path class="st1" d="M167.2,853.7c-2.9-2.2-6.1-3.8-9.4-5c-1.6-0.7-3.3-1.1-5-1.7c-1.7-0.5-3.4-0.8-5.1-1.2
		c-3.5-0.6-7-0.9-10.5-0.8c-3.6,0.1-7.2,0.6-10.6,2v0.4c6.9-0.1,13.7,0.9,20.5,2.1c6.8,1.2,13.5,2.7,20.1,4.6L167.2,853.7
		L167.2,853.7z"/>
	<path class="st1" d="M160.7,831.2c-2.1-2.4-4.5-4.1-7.1-5.6c-1.3-0.8-2.6-1.4-3.9-2c-1.3-0.6-2.7-1.1-4.1-1.6
		c-2.8-0.8-5.7-1.5-8.7-1.8c-3-0.2-6.1-0.1-9.1,0.8v0.4c5.7,0.7,11.2,2.3,16.6,4.1c5.5,1.7,10.8,3.7,16.1,6L160.7,831.2z"/>
	<path class="st1" d="M189,848.8c1.2-1.9,2-3.6,2.7-5.3s1.3-3.3,1.9-4.9c0.2-0.8,0.5-1.6,0.8-2.3l0.4-1.1c0.2-0.4,0.3-0.7,0.4-1.1
		c0.6-1.5,1.3-3,2.5-4.8l-0.1-0.3c-1.8,0.7-3.4,2-4.5,3.5c-1.2,1.5-2,3.3-2.7,5.1c-1.2,3.7-1.8,7.5-1.7,11.3L189,848.8z"/>
	<path class="st1" d="M175.7,824.3c0.6-1.6,0.9-3,1.1-4.5c0.2-1.4,0.3-2.8,0.5-4c0.1-1.3,0.2-2.6,0.3-3.8c0.2-1.2,0.3-2.5,0.9-4.1
		l-0.1-0.2c-1.2,0.9-2.1,2.1-2.7,3.5c-0.6,1.4-0.9,2.8-1,4.3c-0.2,3,0.1,5.9,0.7,8.8H175.7z"/>
	<g>
		<path class="st0" d="M180.9,1016h34.6c1.7,0,3.2-1.3,3.4-3l4.8-40.1c0.2-2-1.3-3.8-3.4-3.8h-44.1c-2,0-3.6,1.8-3.4,3.8l4.8,40.1
			C177.7,1014.7,179.2,1016,180.9,1016z"/>
		<path class="st0" d="M171.7,977.1h53c1.1,0,2-0.8,2.2-1.9l1-6.8c0.2-1.4-0.8-2.6-2.2-2.6h-55.1c-1.4,0-2.4,1.2-2.2,2.6l1,6.8
			C169.6,976.3,170.6,977.1,171.7,977.1z"/>
	</g>
</g>
<g>
	<rect x="1154.3" y="294.1" class="st0" width="363.5" height="68"/>
	<rect x="1458.7" y="303.9" class="st1" width="48.3" height="48.3"/>
	<rect x="1232.3" y="574.6" class="st1" width="208.8" height="98"/>
	<rect x="1259.3" y="592.6" class="st5" width="106.6" height="4.3"/>
	<rect x="1259.3" y="611.1" class="st5" width="106.6" height="4.3"/>
	<rect x="1259.3" y="630.6" class="st5" width="55" height="4.3"/>
	<rect x="1259.3" y="649.2" class="st5" width="55" height="4.3"/>
	<rect x="1177.6" y="342.8" class="st5" width="70.7" height="4.3"/>
	<rect x="1177.6" y="326.1" class="st5" width="105" height="4.3"/>
	<rect x="1177.6" y="309.4" class="st5" width="105" height="4.3"/>
	<rect x="1320.9" y="627.6" class="st6" width="32.6" height="10.7"/>
	<rect x="1323.8" y="232.6" class="st1" width="78.9" height="78.9"/>
	<path class="st7" d="M1382,272.3c0,6.2-3,11.7-7.6,15.1c-1.4,1-2.9,1.9-4.6,2.4c-0.8,0.3-1.5,0.5-2.2,0.7c-0.5,0.1-1,0.2-1.4,0.3
		c-1,0.2-1.9,0.2-2.9,0.2c-1.9,0-3.8-0.3-5.6-0.9c-7.6-2.3-13.2-9.5-13.2-17.9c0-2.9,0.7-5.7,1.9-8.2c1.5-3,3.7-5.7,6.5-7.4
		c0.7-0.5,1.4-0.9,2-1.2c1.6-0.8,3.2-1.4,4.9-1.7c1.2-0.2,2.2-0.3,3.4-0.3c8,0,14.8,5,17.4,12C1381.6,267.6,1382,269.9,1382,272.3z"
		/>
	<rect x="1446.2" y="382.4" class="st5" width="177.1" height="177.1"/>
	<rect x="1355.5" y="344.9" class="st0" width="117" height="51.9"/>
	<rect x="1284.1" y="477.1" class="st5" width="117" height="51.9"/>
	<rect x="1329.5" y="410.9" class="st0" width="97.5" height="51.9"/>
	<path class="st5" d="M1451.5,276.6c-55.5-10.2-82.1,86.5-21.6,94.7c58.9,7.9,71.7-94.5,11.3-88.8c-7.8,0.8-7.9,13.1,0,12.4
		c42.8-4.1,32.9,66.4-6.9,64.5c-46.4-2.3-26.5-78.3,14-70.8C1456,290,1459.3,278.1,1451.5,276.6L1451.5,276.6z"/>
	<path class="st5" d="M1359.3,329.2c-50.1,1.6-101.8,20.8-134.9,59.6c-23,26.9-45.2,84.6-0.2,102.1c7.4,2.9,10.6-9.1,3.3-11.9
		c-28.9-11.2-15.8-48.9-4.2-67.9c9.1-14.8,21.9-27.4,36-37.3c29.4-20.8,64.3-31.2,100.1-32.2C1367.3,341.3,1367.3,329,1359.3,329.2
		L1359.3,329.2z"/>
	<path class="st5" d="M1234.1,461.7c3.5,4.1,7,8.3,10.5,12.4c2.8,3.2,8.7,7.8,9.5,12.1c0.5-2,1.1-4,1.6-6c-4.4,3.9-11.8,6.3-17,9.1
		c-5.8,3.1-11.6,6.2-17.4,9.3c-7,3.7-0.8,14.4,6.2,10.6c8.5-4.5,16.9-9.1,25.3-13.5c4.4-2.3,12.3-4.6,13.3-10.3
		c0.8-4.9-3.6-9.2-6.4-12.6c-5.6-6.7-11.3-13.3-17-19.8C1237.7,446.9,1229,455.6,1234.1,461.7L1234.1,461.7z"/>
	<path class="st5" d="M1474.4,634.9c27.4,6.7,69.4-8.8,76.5-38.8c1.9-7.7-10-11-11.9-3.3c-5.5,23-40.4,35.3-61.3,30.1
		C1470,621.1,1466.7,633,1474.4,634.9L1474.4,634.9z"/>
	<path class="st5" d="M1521.1,598.6c10.4-8.3,20.6-16.9,31.4-24.7c-2.8-0.8-5.7-1.5-8.5-2.2c6,8.6,11.3,18.1,16.1,27.5
		c3.6,7.1,14.2,0.9,10.6-6.2c-4.8-9.4-9.9-18.9-16.1-27.5c-1.8-2.5-5.6-4.3-8.5-2.2c-11.7,8.4-22.7,17.5-33.9,26.5
		C1506.2,594.8,1515,603.4,1521.1,598.6L1521.1,598.6z"/>
	<rect x="1410.8" y="656.6" class="st5" width="68.4" height="68.4"/>
	<polyline class="st8" points="1362.5,260.8 1362.5,273.7 1369.1,269.1 	"/>
	<g>
		<path class="st5" d="M1363.6,446.6l-2,2l-12.8-10.7l12.8-10.7l2,2.1l-10.4,8.6L1363.6,446.6z"/>
		<path class="st5" d="M1386,421.4l-13.1,31h-3.1l13.1-31H1386z"/>
		<path class="st5" d="M1393,429.4l2-2.1l12.8,10.7l-12.8,10.7l-2-2l10.4-8.6L1393,429.4z"/>
	</g>
	<g>
		<path class="st9" d="M1578.2,519.8v-10.9c0-12-9.7-21.7-21.7-21.7H1513c-12,0-21.7,9.7-21.7,21.7v10.9"/>
		<circle class="st9" cx="1534.8" cy="443.7" r="21.7"/>
	</g>
	<g>
		<path class="st10" d="M1433.3,689.2h23.4c1.9,0,3.3,1.5,3.3,3.3v11.7c0,1.9-1.5,3.3-3.3,3.3h-23.4c-1.9,0-3.3-1.5-3.3-3.3v-11.7
			C1429.9,690.6,1431.4,689.2,1433.3,689.2z"/>
		<path class="st10" d="M1436.7,689.2v-6.7c0-4.6,3.7-8.4,8.4-8.4c4,0,7.4,2.8,8.2,6.7"/>
	</g>
</g>
</svg>
