<?xml version="1.0" encoding="utf-8"?>
<!-- Generator: Adobe Illustrator 22.1.0, SVG Export Plug-In . SVG Version: 6.00 Build 0)  -->
<svg version="1.1" id="Camada_1" xmlns="http://www.w3.org/2000/svg" xmlns:xlink="http://www.w3.org/1999/xlink" x="0px" y="0px"
	 viewBox="0 0 576 686.5" style="enable-background:new 0 0 576 686.5;" xml:space="preserve">
<style type="text/css">
	.st0{fill:#FFFFFF;stroke:#212529;stroke-linecap:round;stroke-miterlimit:10;}
	.st1{fill:#FFF56B;stroke:#212529;stroke-linecap:round;stroke-miterlimit:10;}
	.st2{fill:none;stroke:#212529;stroke-linecap:round;stroke-miterlimit:10;}
	.st3{fill:#FFF56B;}
	.st4{fill:#212529;stroke:#212529;stroke-linecap:round;stroke-miterlimit:10;}
	.st5{fill:#212529;}
	.st6{fill:#FAFFFB;}
	.st7{fill:#FFFFFF;stroke:#212529;stroke-width:3;stroke-linecap:round;stroke-miterlimit:10;}
	.st8{fill:none;stroke:#212529;stroke-width:3;stroke-linecap:round;stroke-miterlimit:10;}
	.st9{fill:none;stroke:#FFFFFF;stroke-width:5;stroke-linecap:round;stroke-linejoin:round;}
	.st10{fill:none;stroke:#FFFFFF;stroke-width:3;stroke-linecap:round;stroke-linejoin:round;}
</style>
<g>
	<path class="st0" d="M521.8,161.8l0.1-66.5l0.1-33.2c0-7.5-6-13.7-13.6-13.7L274.7,48c-7.5,0-13.6,6.1-13.6,13.6l-0.1,33.2
		l-0.6,412c0,7.5,6,13.6,13.6,13.6l233.7,0.4c7.5,0,13.6-6,13.6-13.6l0.5-276.7c2.2-0.8,3.8-2.8,3.8-5.3l0.1-58.2
		C525.6,164.7,524,162.6,521.8,161.8z"/>
	<g>
		<path class="st0" d="M390.9,509L390.9,509c-7.1,0-12.8-5.7-12.8-12.8l0,0c0-7.1,5.7-12.8,12.8-12.8l0,0c7.1,0,12.8,5.7,12.8,12.8
			l0,0C403.7,503.2,398,509,390.9,509z"/>
	</g>
	<g>
		<path class="st0" d="M344.4,76.4L344.4,76.4c-2.9,0-5.2-2.4-5.2-5.2l0,0c0-2.9,2.4-5.2,5.2-5.2l0,0c2.9,0,5.2,2.4,5.2,5.2l0,0
			C349.5,74.1,347.2,76.4,344.4,76.4z"/>
	</g>
	<path class="st0" d="M417.8,73.2l-51.6-0.1c-1,0-1.9-0.9-1.9-1.9c0-1,0.9-1.9,1.9-1.9l51.6,0.1c1,0,1.9,0.9,1.9,1.9
		C419.7,72.4,418.9,73.2,417.8,73.2z"/>
	
		<rect x="203.9" y="156.9" transform="matrix(1.580690e-03 -1 1 1.580690e-03 108.1803 673.2838)" class="st1" width="374.7" height="251.1"/>
</g>
<line class="st2" x1="578.5" y1="645.2" x2="138.6" y2="645.2"/>
<line class="st2" x1="578.5" y1="638.5" x2="300.1" y2="638.5"/>
<g>
	<path class="st1" d="M495.3,373.8c0,0,0.8,2.3,3.5,3.4l3.4-1.7l-3.6-5.4L495.3,373.8z"/>
	<path class="st3" d="M477.9,418.6l7.4-11.6l-0.2,6.8l-4.9,6.1c0,0-0.6-0.6-2.4-1.1"/>
	<path class="st1" d="M531.2,374.3c0,0-3,7.1,2.7,7.8c0,0-3.4,3.9-6.3,0c0,0-1.8,3.6,1.8,5.4c0,0-5.1,4.5-8.7,0l-0.6-1.8
		c0,0,3.9-1.8,4.8-6.3l2.7-7.2L531.2,374.3z"/>
	<path class="st0" d="M535.3,654.3c-0.6,2.2-0.4,3-0.6,4.6c-0.3,1.8-2.6,4.3-3.7,5.8c-1.1,1.7-2.9,4.3,3.9,4.4
		c7.3,0.2,11.6-0.3,10.4-4.3s-0.9-7.5-0.8-8.8c0.1-1.3,0-2.6-0.8-3.4C542.9,651.7,536.3,650.3,535.3,654.3z"/>
	<path class="st2" d="M477.6,441c2.6-1.6,7.9-6,17.8-19.6c6-8.3,8.1-12.3,9.6-15c2.7-5,0.3-9.2-3.1-10c-4.5-1-9.4-0.2-14.6,7.6
		c-9.4,13.9-13.7,22.2-15.7,25.8C467.6,437,474.5,442.9,477.6,441z"/>
	<path class="st0" d="M520.8,379.7c0.1,0.5,1,10.2,1.3,17.6c0.1,3.7-3.6,7.1-7.2,7.2c-0.1,0-0.1,0-0.2,0c-3.6,0-7.8-3.2-7.4-6.8
		c0.6-6.5,0.2-13.1,0.2-13.2L520.8,379.7z"/>
	<path class="st1" d="M538.2,420.7c-6.5,21.4-15.6,43-8.2,62.4c0.2,0.6-0.2,1.2-0.8,1.2h-43.3c0,0-0.5-24.2-1.8-72.5
		c-0.2-6,4.2-11.4,10.6-14.7c3.8-2,10.6-3,13.4-3h9.3c3.1,0,6.6,0.6,9.8,1.2C540.3,397.8,542.1,408,538.2,420.7z"/>
	<path class="st0" d="M485.1,426.6c-2.6-1-6.9-2.5-9-3.4c-2.2-1-4.6,3.9-3.9,5.4c1,2.2,6.2,6.9,8.9,5.4c2.7-1.4,4.8,0.6,6.7-1.3
		C489.6,430.7,489.5,428.2,485.1,426.6z"/>
	<path class="st4" d="M538.3,572.4C538.3,572.3,538.3,572.3,538.3,572.4c-0.1-0.4-0.1-0.8-0.2-1.1c-1.4-9.7-5-62.2-5.9-69.7
		c0.1-4.4-0.2-9.8-1.5-16.4c-0.2-0.8-0.9-1.4-1.7-1.4h-43.3c0,0-1.4,13.5-0.7,30.6l0,0c1.8,18.2,2.5,50.5,3.2,58
		c0.2,1.8,0.4,3.4,0.7,4.8c0.1,0.9,0.2,1.8,0.4,2.7c3.4,15.9,12.5,47.3,17.3,78.4c0,0,0.6-1.3,2.4-1.7c1.1-0.2,3.5-0.3,6.7,3.4
		c-3.3-23.2-0.4-65.7-8.8-84.5c1.3-15,0.6-47.3,0.6-60.5c0,0.6,0.1,1.1,0.2,1.8c0.9,9.8,7,40.9,12,58.8c0,1.4,0.2,2.9,0.6,4.5
		c3.9,15.8,13,61.5,14.5,76c0,0,1.5-2.2,3.4-2.3c3.3-0.1,4.4,2.6,5.6,2.9c0.8,0.2,0.7,0.3,0.8-1C545.1,644.5,545.8,589,538.3,572.4z
		"/>
	<path class="st0" d="M506.8,657.5c-0.6,1-5.1,3.5-8.9,5.2c-3.8,1.6-11.8,2.4-7.4,3.8c4.5,1.4,9.7,0.6,12.3,0.2s7-0.5,10.1-0.5
		c4.1,0,4.2-0.2,3.6-4.7C515.7,655.4,508.7,654.1,506.8,657.5z"/>
	<path class="st0" d="M528.1,368.7c-0.6-0.2-1.4-0.1-2.2,0.4c0.5-16.8-9.3-17.4-14.8-17.4c-5.8,0-11.5,5.6-12.2,10.2
		c-1.2,9,0,17.6,1,21.2c1,3.5,4.1,8,8.3,8c3.9,0,9.1-1.5,12.7-5c2.4-2.2,3.3-3.8,3.9-7c1.4-0.3,2.9-1.9,3.8-4.2
		C529.8,372.1,529.6,369.3,528.1,368.7z"/>
	<path class="st1" d="M533,435.5c0-0.1,2.5-6.1,3.8-9.8c3.4-10.2,3.5-13.5,4.2-16.7c1.1-5.8-3.6-8.6-6.6-9
		c-4.9-0.8-9.8,1.6-11.7,8.5c-2.2,7.9-4.4,18.2-4.8,19.8"/>
	<path class="st1" d="M531.2,374.7c1.9,0.1,3-0.1,5.4-0.6c-9-4.5,3.6-18.9-10.8-20.6c0,0-0.6-14.6-27-0.9c-1.8,0.7-4.8,1.4-5.8-3
		c0,0-4.2,7.3,4.1,7.5c0,0-7.2,7.2-14.4,2.7c0,0,2.9,8.8,13.4,5.4c0,0-0.9,4.5-9.9,4.5c0,0,11.7,11.7,29.7-5.4c0,0,1,4.6,5.2,7.7
		c0.2,1.5,0.1,3.3-0.7,4.9c0,0,2.7-0.6,4.8-2.9c1.4,0.4,3.5,0.8,3.5,0.8"/>
	<line class="st2" x1="478.1" y1="418.7" x2="480.3" y2="419.8"/>
	<path class="st0" d="M533,435.5c-3.8,9.7-7.1,15.8-9.4,16.8c-0.6,0.3-1.5,0.3-2.5,0.1c-5.6-0.4-12-3.4-23.1-10.4
		c-8.2-5.2-11.3-6.6-13.1-10.3c-1.5-3,1.1-5,3.5-3.8c2.9,1.5,18.9,4.3,28.2,7l1.4-6.6C517.9,428.2,527.1,429.7,533,435.5z"/>
	<path class="st0" d="M503.8,387.7c-1.4-1.7-6-6.2-9.8-5.4c-2.6,0.6,1.9,8.3,4.8,12.6c-5.8,7.5-24.2,30.6-27.5,35.5
		c-4.6,6.5,4.5,14.7,8.8,10.8c4.7-4.3,12.8-19.6,19.3-30.8c4.1-7,5.3-10.5,5.6-13.8C506.2,394.6,506.2,390.7,503.8,387.7z"/>
</g>
<g>
	<rect x="6.4" y="74.6" class="st0" width="298.4" height="55.8"/>
	<rect x="256.2" y="82.7" class="st1" width="39.7" height="39.7"/>
	<rect x="70.4" y="304.8" class="st1" width="171.4" height="80.5"/>
	<rect x="92.6" y="319.6" class="st5" width="87.5" height="3.5"/>
	<rect x="92.6" y="334.8" class="st5" width="87.5" height="3.5"/>
	<rect x="92.6" y="350.8" class="st5" width="45.1" height="3.5"/>
	<rect x="92.6" y="366.1" class="st5" width="45.1" height="3.5"/>
	<rect x="25.5" y="114.6" class="st5" width="58.1" height="3.5"/>
	<rect x="25.5" y="100.9" class="st5" width="86.2" height="3.5"/>
	<rect x="25.5" y="87.1" class="st5" width="86.2" height="3.5"/>
	<rect x="143.2" y="348.4" class="st6" width="26.8" height="8.8"/>
	<rect x="145.6" y="24.1" class="st1" width="64.8" height="64.8"/>
	<path class="st7" d="M193.3,56.7c0,5.1-2.5,9.6-6.2,12.4c-1.1,0.8-2.4,1.5-3.8,2c-0.6,0.2-1.2,0.4-1.8,0.6
		c-0.4,0.1-0.8,0.2-1.1,0.2c-0.8,0.2-1.6,0.2-2.4,0.2c-1.6,0-3.1-0.2-4.6-0.7c-6.2-1.9-10.8-7.8-10.8-14.7c0-2.4,0.6-4.6,1.5-6.7
		c1.2-2.5,3-4.6,5.4-6.1c0.6-0.4,1.1-0.7,1.7-1c1.3-0.6,2.6-1.1,4-1.4c1-0.2,1.8-0.2,2.8-0.2c6.6,0,12.2,4.1,14.3,9.8
		C193,52.8,193.3,54.8,193.3,56.7z"/>
	<rect x="246" y="147" class="st5" width="145.4" height="145.4"/>
	<rect x="171.5" y="116.3" class="st0" width="96.1" height="42.6"/>
	<rect x="112.9" y="224.8" class="st5" width="96.1" height="42.6"/>
	<rect x="150.2" y="170.5" class="st0" width="80.1" height="42.6"/>
	<path class="st5" d="M250.3,60.3c-45.6-8.4-67.4,71-17.8,77.7c48.4,6.5,58.9-77.6,9.3-72.9c-6.4,0.6-6.5,10.7,0,10.2
		c35.1-3.4,27,54.5-5.7,52.9c-38.1-1.9-21.8-64.3,11.5-58.1C254,71.2,256.7,61.5,250.3,60.3L250.3,60.3z"/>
	<path class="st5" d="M174.7,103.4c-41.1,1.3-83.6,17-110.8,48.9c-18.9,22.1-37.1,69.4-0.2,83.8c6.1,2.4,8.7-7.4,2.7-9.8
		c-23.8-9.2-13-40.1-3.4-55.7c7.4-12.2,18-22.5,29.5-30.6c24.2-17,52.8-25.6,82.1-26.5C181.2,113.4,181.2,103.2,174.7,103.4
		L174.7,103.4z"/>
	<path class="st5" d="M71.9,212.1c2.9,3.4,5.8,6.8,8.6,10.2c2.3,2.6,7.1,6.4,7.8,9.9c0.4-1.7,0.9-3.3,1.3-5
		c-3.6,3.2-9.7,5.2-13.9,7.4c-4.8,2.6-9.5,5.1-14.3,7.6c-5.8,3-0.6,11.8,5.1,8.7c7-3.7,13.8-7.4,20.8-11.1
		c3.6-1.9,10.1-3.8,10.9-8.5c0.6-4-3-7.5-5.3-10.3c-4.6-5.5-9.3-10.9-13.9-16.2C74.9,200,67.7,207.2,71.9,212.1L71.9,212.1z"/>
	<path class="st5" d="M269.1,354.3c22.5,5.5,56.9-7.2,62.8-31.8c1.5-6.3-8.2-9-9.8-2.7c-4.5,18.9-33.2,29-50.3,24.7
		C265.5,343,262.8,352.7,269.1,354.3L269.1,354.3z"/>
	<path class="st5" d="M307.5,324.5c8.6-6.8,16.9-13.8,25.8-20.2c-2.3-0.6-4.6-1.2-7-1.8c5,7,9.3,14.9,13.2,22.6
		c3,5.8,11.7,0.7,8.7-5.1c-3.9-7.7-8.2-15.5-13.2-22.6c-1.4-2.1-4.6-3.5-7-1.8c-9.6,6.9-18.6,14.4-27.8,21.8
		C295.3,321.4,302.5,328.5,307.5,324.5L307.5,324.5z"/>
	<rect x="217" y="372.2" class="st5" width="56.1" height="56.1"/>
	<polyline class="st8" points="177.3,47.2 177.3,57.9 182.7,54.1 	"/>
	<g>
		<path class="st5" d="M178.2,199.8l-1.7,1.7l-10.5-8.8l10.5-8.8l1.7,1.8l-8.6,7L178.2,199.8z"/>
		<path class="st5" d="M196.6,179.1l-10.7,25.4h-2.6l10.7-25.4H196.6z"/>
		<path class="st5" d="M202.3,185.7l1.7-1.8l10.5,8.8l-10.5,8.8l-1.7-1.7l8.6-7L202.3,185.7z"/>
	</g>
	<g>
		<path class="st9" d="M354.4,259.9v-9c0-9.8-8-17.8-17.8-17.8h-35.7c-9.8,0-17.8,8-17.8,17.8v9"/>
		<circle class="st9" cx="318.7" cy="197.4" r="17.8"/>
	</g>
	<g>
		<path class="st10" d="M235.4,398.9h19.2c1.5,0,2.7,1.2,2.7,2.7v9.6c0,1.5-1.2,2.7-2.7,2.7h-19.2c-1.5,0-2.7-1.2-2.7-2.7v-9.6
			C232.7,400.1,233.8,398.9,235.4,398.9z"/>
		<path class="st10" d="M238.2,398.9v-5.5c0-3.8,3-6.9,6.9-6.9c3.3,0,6.1,2.3,6.7,5.5"/>
	</g>
</g>
</svg>
