<?xml version="1.0" encoding="utf-8"?>
<!-- Generator: Adobe Illustrator 22.1.0, SVG Export Plug-In . SVG Version: 6.00 Build 0)  -->
<svg version="1.1" id="Camada_1" xmlns="http://www.w3.org/2000/svg" xmlns:xlink="http://www.w3.org/1999/xlink" x="0px" y="0px"
	 viewBox="0 0 992 664.4" style="enable-background:new 0 0 992 664.4;" xml:space="preserve">
<style type="text/css">
	.st0{fill:#FFFFFF;stroke:#212529;stroke-width:0.75;stroke-linecap:round;stroke-miterlimit:10;}
	.st1{fill:#FFF56B;stroke:#212529;stroke-width:0.75;stroke-linecap:round;stroke-miterlimit:10;}
	.st2{fill:none;stroke:#212529;stroke-width:0.75;stroke-linecap:round;stroke-miterlimit:10;}
	.st3{fill:#FFF56B;}
	.st4{fill:#212529;stroke:#212529;stroke-width:0.75;stroke-linecap:round;stroke-miterlimit:10;}
	.st5{fill:#212529;}
	.st6{fill:#FAFFFB;}
	.st7{fill:#FFFFFF;stroke:#212529;stroke-width:2;stroke-linecap:round;stroke-miterlimit:10;}
	.st8{fill:none;stroke:#212529;stroke-width:2;stroke-linecap:round;stroke-miterlimit:10;}
	.st9{fill:none;stroke:#FFFFFF;stroke-width:4;stroke-linecap:round;stroke-linejoin:round;}
	.st10{fill:none;stroke:#FFFFFF;stroke-width:2;stroke-linecap:round;stroke-linejoin:round;}
</style>
<g>
	<path class="st0" d="M942.5,234.9l0.1-53.2l0.1-26.6c0-6-4.9-10.9-10.8-10.9l-187.1-0.3c-6,0-10.8,4.9-10.8,10.8l-0.1,26.6
		l-0.5,329.9c0,6,4.9,10.8,10.8,10.8l187.1,0.3c6,0,10.8-4.9,10.8-10.8l0.4-221.5c1.8-0.7,3-2.2,3-4.3l0.1-46.6
		C945.6,237.2,944.3,235.6,942.5,234.9z"/>
	<g>
		<path class="st0" d="M837.7,512.8L837.7,512.8c-5.7,0-10.3-4.6-10.3-10.3l0,0c0-5.7,4.6-10.3,10.3-10.3l0,0
			c5.7,0,10.3,4.6,10.3,10.3l0,0C848,508.3,843.4,512.8,837.7,512.8z"/>
	</g>
	<g>
		<path class="st0" d="M800.5,166.5L800.5,166.5c-2.3,0-4.1-1.9-4.1-4.1l0,0c0-2.3,1.9-4.1,4.1-4.1l0,0c2.3,0,4.1,1.9,4.1,4.1l0,0
			C804.7,164.7,802.8,166.5,800.5,166.5z"/>
	</g>
	<path class="st0" d="M859.3,164l-41.3-0.1c-0.8,0-1.5-0.7-1.5-1.5c0-0.8,0.7-1.5,1.5-1.5l41.3,0.1c0.8,0,1.5,0.7,1.5,1.5
		S860.1,164,859.3,164z"/>
	
		<rect x="688" y="231.1" transform="matrix(1.580686e-03 -1 1 1.580686e-03 505.0779 1169.0531)" class="st1" width="300" height="201"/>
</g>
<line class="st2" x1="992" y1="616.9" x2="-1" y2="616.9"/>
<line class="st2" x1="992" y1="611.6" x2="445.3" y2="611.6"/>
<line class="st2" x1="210.6" y1="611.6" x2="-1.7" y2="611.6"/>
<line class="st2" x1="992" y1="606.3" x2="543.4" y2="606.3"/>
<g>
	<path class="st1" d="M921.3,404.7c0,0,0.7,1.8,2.8,2.8l2.7-1.3l-2.9-4.3L921.3,404.7z"/>
	<path class="st3" d="M907.4,440.5l6-9.3l-0.1,5.5l-3.9,4.9c0,0-0.5-0.5-1.9-0.9"/>
	<path class="st1" d="M950.1,405.1c0,0-2.4,5.7,2.2,6.2c0,0-2.7,3.2-5.1,0c0,0-1.4,2.9,1.4,4.3c0,0-4.1,3.6-7,0l-0.5-1.4
		c0,0,3.2-1.4,3.8-5.1l2.2-5.8L950.1,405.1z"/>
	<path class="st0" d="M953.3,629.2c-0.5,1.8-0.3,2.4-0.5,3.7c-0.3,1.4-2.1,3.5-3,4.7c-0.9,1.3-2.3,3.5,3.2,3.5
		c5.8,0.1,9.3-0.3,8.3-3.5s-0.7-6-0.7-7c0.1-1,0-2.1-0.7-2.8C959.4,627.2,954.2,626,953.3,629.2z"/>
	<path class="st2" d="M907.2,458.4c2-1.2,6.3-4.8,14.2-15.7c4.8-6.6,6.4-9.9,7.7-12c2.2-3.9,0.3-7.4-2.5-8
		c-3.6-0.9-7.5-0.1-11.6,6.1c-7.5,11.2-11,17.7-12.6,20.6C899.2,455.3,904.7,460,907.2,458.4z"/>
	<path class="st0" d="M941.8,409.4c0.1,0.4,0.9,8.1,1.1,14.1c0.1,3-2.9,5.7-5.8,5.8c-0.1,0-0.1,0-0.1,0c-2.9,0-6.2-2.6-6-5.5
		c0.5-5.2,0.1-10.5,0.1-10.6L941.8,409.4z"/>
	<path class="st1" d="M955.7,442.2c-5.2,17.2-12.5,34.4-6.5,49.9c0.2,0.5-0.1,1-0.7,1h-34.7c0,0-0.4-19.4-1.4-58
		c-0.1-4.8,3.4-9.1,8.5-11.8c3-1.6,8.5-2.4,10.7-2.4h7.4c2.5,0,5.3,0.5,7.8,1C957.4,423.9,958.8,432.1,955.7,442.2z"/>
	<path class="st0" d="M913.1,447c-2.1-0.8-5.5-2-7.2-2.8s-3.7,3.2-3.2,4.3c0.8,1.7,4.9,5.5,7.1,4.3c2.2-1.2,3.8,0.5,5.4-1.1
		C916.8,450.3,916.7,448.2,913.1,447z"/>
	<path class="st4" d="M955.8,563.6L955.8,563.6c-0.1-0.3-0.1-0.7-0.1-0.9c-1.1-7.8-4-49.8-4.7-55.9c0.1-3.5-0.2-7.9-1.2-13.1
		c-0.1-0.7-0.7-1.1-1.3-1.1h-34.6c0,0-1.1,10.8-0.6,24.5l0,0c1.4,14.6,2,40.5,2.6,46.4c0.1,1.4,0.3,2.7,0.6,3.8
		c0.1,0.7,0.1,1.4,0.3,2.2c2.7,12.8,10,37.9,13.8,62.8c0,0,0.5-1.1,1.9-1.3c0.9-0.2,2.8-0.3,5.4,2.7c-2.6-18.6-0.3-52.6-7-67.6
		c1.1-12,0.5-37.9,0.5-48.5c0,0.5,0.1,0.9,0.1,1.4c0.7,7.8,5.7,32.8,9.6,47.1c0,1.1,0.2,2.3,0.5,3.6c3.2,12.6,10.4,49.2,11.6,60.9
		c0,0,1.2-1.8,2.7-1.8c2.6-0.1,3.5,2,4.5,2.3c0.7,0.2,0.6,0.3,0.7-0.9C961.2,621.4,961.7,577,955.8,563.6z"/>
	<path class="st0" d="M930.5,631.9c-0.5,0.9-4.1,2.8-7.1,4.1c-3,1.2-9.5,1.9-5.9,3.1c3.6,1.2,7.8,0.5,9.9,0.1
		c2.1-0.3,5.7-0.4,8.1-0.4c3.3,0,3.4-0.2,2.9-3.7C937.7,630.1,932,629.1,930.5,631.9z"/>
	<path class="st0" d="M947.6,400.6c-0.5-0.2-1.1-0.1-1.7,0.3c0.4-13.5-7.4-13.9-11.8-13.9c-4.7,0-9.2,4.5-9.7,8.1
		c-1,7.2,0,14.1,0.8,17c0.8,2.8,3.3,6.4,6.6,6.4c3.2,0,7.3-1.2,10.2-3.9c1.9-1.8,2.6-3.1,3.2-5.7c1.1-0.3,2.3-1.5,3-3.4
		C949,403.3,948.8,401,947.6,400.6z"/>
	<path class="st1" d="M951.5,454.1c0-0.1,2-4.9,3-7.9c2.8-8.1,2.8-10.8,3.4-13.4c0.9-4.6-2.9-6.8-5.3-7.2c-3.9-0.7-7.8,1.2-9.3,6.8
		c-1.8,6.3-3.5,14.6-3.8,15.9"/>
	<path class="st1" d="M950.1,405.4c1.5,0.1,2.4-0.1,4.3-0.5c-7.2-3.6,2.9-15.1-8.7-16.5c0,0-0.5-11.7-21.6-0.7
		c-1.4,0.6-3.8,1.2-4.7-2.4c0,0-3.4,5.8,3.3,6c0,0-5.8,5.8-11.5,2.2c0,0,2.3,7,10.8,4.3c0,0-0.7,3.6-8,3.6c0,0,9.3,9.3,23.7-4.3
		c0,0,0.8,3.7,4.1,6.2c0.1,1.2,0.1,2.6-0.6,3.9c0,0,2.2-0.5,3.8-2.3c1.1,0.3,2.8,0.7,2.8,0.7"/>
	<line class="st2" x1="907.6" y1="440.5" x2="909.4" y2="441.5"/>
	<path class="st0" d="M951.5,454.1c-3,7.8-5.7,12.6-7.5,13.5c-0.5,0.3-1.2,0.3-2,0.1c-4.5-0.3-9.6-2.7-18.5-8.3
		c-6.5-4.1-9-5.3-10.5-8.3c-1.2-2.4,0.9-4,2.8-3c2.3,1.2,15.1,3.5,22.5,5.7l1.1-5.3C939.4,448.2,946.8,449.4,951.5,454.1z"/>
	<path class="st0" d="M928.1,415.8c-1.1-1.3-4.8-4.9-7.8-4.3c-2,0.5,1.5,6.6,3.8,10.1c-4.6,6-19.3,24.5-22,28.5
		c-3.7,5.2,3.6,11.8,7,8.7c3.7-3.5,10.3-15.7,15.4-24.6c3.3-5.6,4.2-8.4,4.5-11C930.1,421.3,930.1,418.1,928.1,415.8z"/>
</g>
<g>
	<path class="st1" d="M105.1,615.4c4.2-2.7-1.2-10.8-10.9-11.6c0,0-1.1,4.3-0.1,8.1C94.9,615.1,99.2,619.1,105.1,615.4z"/>
	<path class="st1" d="M110.7,616c4.9-0.9,2.8-10.5-5.9-14.8c0,0-2.5,3.6-3,7.5C101.4,612.1,103.9,617.4,110.7,616z"/>
	<path class="st1" d="M114.1,616.7c4.3,1.2,6.6-7.3,1.2-14.4c0,0-3.5,1.9-5.5,4.9C108.1,609.7,108.1,615,114.1,616.7z"/>
	<path class="st1" d="M116,615.6c3,2.7,8.2-3.3,6.6-11.1c0,0-3.6,0.1-6.3,1.7C113.9,607.6,111.8,611.9,116,615.6z"/>
	<path class="st1" d="M124.7,595.5c16.6-6.5,3.3-38.9-30.4-48.4c0,0-6.6,14.4-5.9,28.5C89.1,587.6,101.6,604.6,124.7,595.5z"/>
	<path class="st1" d="M97.6,551.2c3.1,2.3,5.7,5,7.7,8.1c0.6,0.7,1,1.5,1.5,2.4c0.5,0.8,1,1.5,1.4,2.4c0.4,0.8,0.8,1.7,1.2,2.5
		l0.6,1.2l0.5,1.3c1.4,3.4,2.4,7,3.3,10.6c0.4,1.8,0.8,3.6,1.1,5.4l0.7,5.6c0.1,0.9,0.3,1.8,0.4,2.8l0.1,2.8
		c0.1,1.9,0.2,3.7,0.3,5.6c-0.1,3.8,0,7.5-0.1,11.3c-0.1,1.9-0.2,3.8-0.3,5.7l-0.1,2.8l-0.1,1.4l-0.1,1.4l-0.5,5.7l-0.2,2.9
		l-0.1,2.9l0.3,0.1l2-11.3l0.2-1.4l0.2-1.4l0.3-2.8l0.7-5.7l0.2-1.4l0.1-1.4l0.1-2.9l0.2-5.7l-0.2-5.7l-0.1-2.9
		c-0.1-0.9-0.2-1.9-0.3-2.8l-0.8-5.7l-1.2-5.6c-1-3.7-2.2-7.4-3.8-10.9l-0.6-1.3l-0.7-1.2l-1.4-2.5c-0.5-0.8-1.1-1.6-1.6-2.4
		c-0.5-0.8-1.1-1.6-1.7-2.3c-2.4-3-5.3-5.7-8.8-7.5L97.6,551.2z"/>
	<path class="st1" d="M114.3,579.7c-12.6-5-2.5-29.6,23.2-36.8c0,0,5,11,4.5,21.7C141.4,573.6,131.9,586.6,114.3,579.7z"/>
	<path class="st1" d="M134.7,545.8c-2.6,3-4.7,6.4-6.8,9.8c-1,1.7-2,3.5-2.8,5.3l-1.3,2.7l-1.2,2.7c-3.3,7.3-5.8,14.9-7.8,22.6
		c-0.5,2-0.8,3.9-1.2,5.9l-0.6,2.9l-0.5,3l-0.8,5.9c-0.2,2-0.4,4-0.5,6l-0.2,3c-0.1,1-0.1,2-0.1,3l-0.1,6c0,2,0.2,4,0.3,5.9
		s0.2,4,0.4,5.9h0.2c0.1-4,0-7.9,0.2-11.8l0.4-5.9c0.1-1,0.1-2,0.2-3l0.4-3l0.7-5.9l0.9-5.9l0.5-2.9l0.6-2.9
		c0.4-1.9,0.8-3.9,1.3-5.7c1.9-7.6,4.3-15.2,7.2-22.5c3-7.3,6.5-14.5,10.9-21L134.7,545.8z"/>
	<path class="st1" d="M107.4,565.3c23.8-7.3,8.8-53.9-37.3-70.8c0,0-10.8,19.4-11.3,39.1C58.4,550.4,74,575.4,107.4,565.3z"/>
	<path class="st1" d="M74.3,500.5c0.9,1.2,1.7,2.5,2.5,3.7s1.6,2.5,2.4,3.8c0.8,1.2,1.5,2.5,2.3,3.9c0.7,1.3,1.5,2.6,2.1,3.9
		c1.4,2.7,2.8,5.3,4,8c0.6,1.4,1.2,2.7,1.9,4l1.7,4.1l1.7,4.1l1.5,4.1l1.5,4.1c0.5,1.4,0.9,2.8,1.4,4.2c0.4,1.4,0.9,2.8,1.4,4.2
		l0.7,2.1c0.2,0.7,0.4,1.4,0.6,2.1l2.3,8.6c0.7,2.8,1.2,5.7,1.9,8.6c0.3,1.4,0.7,2.9,0.9,4.3c0.2,1.5,0.4,2.9,0.7,4.4
		c0.5,2.9,1,5.8,1.4,8.8c0.3,3,0.6,5.9,0.9,8.8l0.5,4.4l0.2,4.4l0.5,8.9c0.4,6,0.1,11.9,0.5,17.9h0.4l0.5-9l0.2-4.5
		c0.1-1.5,0.2-3,0.1-4.5l-0.1-9l-0.1-4.5l-0.4-4.5l-0.7-9c-0.4-3-0.8-5.9-1.2-8.9l-0.6-4.4c-0.2-1.5-0.6-3-0.9-4.4
		c-0.6-3-1.2-5.9-1.8-8.8c-2.9-11.7-6.8-23-11.8-33.9c-5.1-10.8-11.1-21.4-18.9-30.6L74.3,500.5z"/>
	<path class="st1" d="M93.8,586.9c14.6-10.5-6.6-38.9-42-39.6c0,0-2.8,15.8,1.4,29.3C57,588.2,73.4,601.7,93.8,586.9z"/>
	<path class="st1" d="M56.1,550.4c3.6,2.4,6.9,5.2,10,8.1l2.4,2.2l2.3,2.3c1.5,1.5,2.9,3.1,4.3,4.7c5.5,6.5,10.3,13.5,14.6,20.9
		l3.1,5.6c0.5,0.9,1,1.9,1.4,2.8l1.4,2.9l1.4,2.9c0.2,0.5,0.5,0.9,0.7,1.4l0.6,1.5c0.8,2,1.6,4,2.4,5.9c0.9,2,1.5,4,2.3,6l2.1,6.1
		c1.4,4.1,2.4,8.2,3.9,12.4l0.2-0.1c-0.9-4.2-1.8-8.5-2.9-12.7l-1.8-6.2c-0.7-2.1-1.2-4.1-2-6.2l-2.3-6.1l-0.6-1.5
		c-0.2-0.5-0.4-1-0.7-1.5l-1.4-3l-1.4-3c-0.4-1-0.9-2-1.4-2.9l-3.1-5.7c-4.4-7.5-9.4-14.6-15.3-21c-1.5-1.6-3-3.2-4.6-4.6l-2.4-2.3
		l-2.5-2.1c-3.4-2.7-6.9-5.3-10.7-7.3L56.1,550.4z"/>
	<path class="st1" d="M89.5,543.2c-1.7-1.3-3.6-2.3-5.6-3c-0.9-0.4-2-0.7-3-1s-2-0.5-3-0.7c-2.1-0.4-4.1-0.5-6.2-0.5
		c-2.1,0.1-4.3,0.4-6.3,1.2v0.2c4.1-0.1,8.1,0.5,12.1,1.2s8,1.6,11.9,2.7L89.5,543.2L89.5,543.2z"/>
	<path class="st1" d="M85.7,529.8c-1.2-1.4-2.7-2.4-4.2-3.3c-0.8-0.5-1.5-0.8-2.3-1.2c-0.8-0.4-1.6-0.7-2.4-0.9
		c-1.7-0.5-3.4-0.9-5.2-1.1c-1.8-0.1-3.6-0.1-5.4,0.5v0.2c3.4,0.4,6.6,1.4,9.8,2.4c3.3,1,6.4,2.2,9.5,3.6L85.7,529.8z"/>
	<path class="st1" d="M102.4,540.3c0.7-1.1,1.2-2.1,1.6-3.1s0.8-2,1.1-2.9c0.1-0.5,0.3-0.9,0.5-1.4l0.2-0.7c0.1-0.2,0.2-0.4,0.2-0.7
		c0.4-0.9,0.8-1.8,1.5-2.8l-0.1-0.2c-1.1,0.4-2,1.2-2.7,2.1s-1.2,2-1.6,3c-0.7,2.2-1.1,4.4-1,6.7H102.4z"/>
	<path class="st1" d="M94.6,525.7c0.4-0.9,0.5-1.8,0.7-2.7c0.1-0.8,0.2-1.7,0.3-2.4c0.1-0.8,0.1-1.5,0.2-2.3
		c0.1-0.7,0.2-1.5,0.5-2.4l-0.1-0.1c-0.7,0.5-1.2,1.2-1.6,2.1c-0.4,0.8-0.5,1.7-0.6,2.5c-0.1,1.8,0.1,3.5,0.4,5.2L94.6,525.7
		L94.6,525.7z"/>
	<g>
		<path class="st0" d="M97.6,639.3h20.5c1,0,1.9-0.8,2-1.8l2.8-23.8c0.1-1.2-0.8-2.3-2-2.3h-26c-1.2,0-2.1,1.1-2,2.3l2.8,23.8
			C95.8,638.5,96.6,639.3,97.6,639.3z"/>
		<path class="st0" d="M92.2,616.3h31.4c0.7,0,1.2-0.5,1.3-1.1l0.6-4c0.1-0.8-0.5-1.5-1.3-1.5H91.5c-0.8,0-1.4,0.7-1.3,1.5l0.6,4
			C91,615.8,91.5,616.3,92.2,616.3z"/>
	</g>
</g>
<g>
	<rect x="529.9" y="165.1" class="st0" width="238.9" height="44.7"/>
	<rect x="729.9" y="171.5" class="st1" width="31.7" height="31.7"/>
	<rect x="581.1" y="349.5" class="st1" width="137.2" height="64.4"/>
	<rect x="598.9" y="361.3" class="st5" width="70.1" height="2.8"/>
	<rect x="598.9" y="373.4" class="st5" width="70.1" height="2.8"/>
	<rect x="598.9" y="386.3" class="st5" width="36.1" height="2.8"/>
	<rect x="598.9" y="398.5" class="st5" width="36.1" height="2.8"/>
	<rect x="545.2" y="197.1" class="st5" width="46.5" height="2.8"/>
	<rect x="545.2" y="186.1" class="st5" width="69" height="2.8"/>
	<rect x="545.2" y="175.2" class="st5" width="69" height="2.8"/>
	<rect x="639.4" y="384.3" class="st6" width="21.4" height="7"/>
	<rect x="641.3" y="124.7" class="st1" width="51.9" height="51.9"/>
	<path class="st7" d="M679.5,150.8c0,4.1-2,7.7-5,9.9c-0.9,0.7-1.9,1.2-3,1.6c-0.5,0.2-1,0.3-1.4,0.5c-0.3,0.1-0.7,0.1-0.9,0.2
		c-0.7,0.1-1.2,0.1-1.9,0.1c-1.2,0-2.5-0.2-3.7-0.6c-5-1.5-8.7-6.2-8.7-11.8c0-1.9,0.5-3.7,1.2-5.4c1-2,2.4-3.7,4.3-4.9
		c0.5-0.3,0.9-0.6,1.3-0.8c1.1-0.5,2.1-0.9,3.2-1.1c0.8-0.1,1.4-0.2,2.2-0.2c5.3,0,9.7,3.3,11.4,7.9
		C679.3,147.7,679.5,149.2,679.5,150.8z"/>
	<rect x="721.7" y="223.1" class="st5" width="116.4" height="116.4"/>
	<rect x="662.1" y="198.5" class="st0" width="76.9" height="34.1"/>
	<rect x="615.2" y="285.4" class="st5" width="76.9" height="34.1"/>
	<rect x="645" y="241.9" class="st0" width="64.1" height="34.1"/>
	<path class="st5" d="M725.2,153.6c-36.5-6.7-54,56.8-14.2,62.2c38.7,5.2,47.1-62.1,7.4-58.4c-5.1,0.5-5.2,8.6,0,8.1
		c28.1-2.7,21.6,43.6-4.5,42.4c-30.5-1.5-17.4-51.5,9.2-46.5C728.2,162.4,730.3,154.6,725.2,153.6L725.2,153.6z"/>
	<path class="st5" d="M664.6,188.2c-32.9,1.1-66.9,13.7-88.7,39.2c-15.1,17.7-29.7,55.6-0.1,67.1c4.9,1.9,7-6,2.2-7.8
		c-19-7.4-10.4-32.1-2.8-44.6c6-9.7,14.4-18,23.7-24.5c19.3-13.7,42.3-20.5,65.8-21.2C669.9,196.1,669.9,188,664.6,188.2
		L664.6,188.2z"/>
	<path class="st5" d="M582.3,275.3c2.3,2.7,4.6,5.5,6.9,8.1c1.8,2.1,5.7,5.1,6.2,8c0.3-1.3,0.7-2.6,1.1-3.9c-2.9,2.6-7.8,4.1-11.2,6
		c-3.8,2-7.6,4.1-11.4,6.1c-4.6,2.4-0.5,9.5,4.1,7c5.6-3,11.1-6,16.6-8.9c2.9-1.5,8.1-3,8.7-6.8c0.5-3.2-2.4-6-4.2-8.3
		c-3.7-4.4-7.4-8.7-11.2-13C584.7,265.5,579,271.2,582.3,275.3L582.3,275.3z"/>
	<path class="st5" d="M740.3,389.1c18,4.4,45.6-5.8,50.3-25.5c1.2-5.1-6.6-7.2-7.8-2.2c-3.6,15.1-26.6,23.2-40.3,19.8
		C737.4,380,735.2,387.8,740.3,389.1L740.3,389.1z"/>
	<path class="st5" d="M770.9,365.2c6.8-5.5,13.5-11.1,20.6-16.2c-1.8-0.5-3.7-1-5.6-1.4c3.9,5.7,7.4,11.9,10.6,18.1
		c2.4,4.7,9.3,0.6,7-4.1c-3.2-6.2-6.5-12.4-10.6-18.1c-1.2-1.6-3.7-2.8-5.6-1.4c-7.7,5.5-14.9,11.5-22.3,17.4
		C761.2,362.7,766.9,368.4,770.9,365.2L770.9,365.2z"/>
	<rect x="698.5" y="403.3" class="st5" width="45" height="45"/>
	<polyline class="st8" points="666.7,143.2 666.7,151.7 671,148.7 	"/>
	<g>
		<path class="st5" d="M667.4,265.3l-1.3,1.3l-8.4-7l8.4-7l1.3,1.4l-6.8,5.7L667.4,265.3z"/>
		<path class="st5" d="M682.2,248.8l-8.6,20.4h-2l8.6-20.4H682.2z"/>
		<path class="st5" d="M686.8,254l1.3-1.4l8.4,7l-8.4,7l-1.3-1.3l6.8-5.7L686.8,254z"/>
	</g>
	<g>
		<path class="st9" d="M808.5,313.4v-7.2c0-7.9-6.4-14.3-14.3-14.3h-28.6c-7.9,0-14.3,6.4-14.3,14.3v7.2"/>
		<circle class="st9" cx="779.9" cy="263.4" r="14.3"/>
	</g>
	<g>
		<path class="st10" d="M713.2,424.8h15.4c1.2,0,2.2,1,2.2,2.2v7.7c0,1.2-1,2.2-2.2,2.2h-15.4c-1.2,0-2.2-1-2.2-2.2V427
			C711,425.7,712,424.8,713.2,424.8z"/>
		<path class="st10" d="M715.5,424.8v-4.4c0-3,2.4-5.5,5.5-5.5c2.6,0,4.9,1.8,5.4,4.4"/>
	</g>
</g>
</svg>
