<?xml version="1.0" encoding="utf-8"?>
<!-- Generator: Adobe Illustrator 22.1.0, SVG Export Plug-In . SVG Version: 6.00 Build 0)  -->
<svg version="1.1" id="Camada_2" xmlns="http://www.w3.org/2000/svg" xmlns:xlink="http://www.w3.org/1999/xlink" x="0px" y="0px"
	 viewBox="0 0 910.6 463.5" style="enable-background:new 0 0 910.6 463.5;" xml:space="preserve">
<style type="text/css">
	.st0{fill:#212529;}
	.st1{fill:none;stroke:#212529;stroke-linecap:round;stroke-miterlimit:10;}
	.st2{fill:none;stroke:#212529;stroke-miterlimit:10;}
</style>
<g>
	<g>
		<path class="st0" d="M749.3,165.7C749.3,165.7,749.3,165.7,749.3,165.7l140.4,0.2c4.5,0,8.2,3.7,8.1,8.2l0,19.9l-0.1,40
			c1.3,0.5,2.3,1.7,2.3,3.2l-0.1,34.9c0,1.5-1,2.7-2.3,3.2l-0.3,166.2c0,4.5-3.7,8.1-8.2,8.1c0,0,0,0,0,0l-140.4-0.2
			c-4.5,0-8.2-3.7-8.2-8.2l0.4-247.5l0-19.9C741.1,169.4,744.8,165.7,749.3,165.7 M749.3,164.7L749.3,164.7L749.3,164.7L749.3,164.7
			c-5.1,0-9.2,4.1-9.2,9.2l0,19.9l-0.4,247.5c0,5.1,4.1,9.2,9.1,9.2l140.4,0.2c5.1,0,9.2-4.1,9.2-9.1l0.3-165.6
			c1.4-0.8,2.3-2.2,2.3-3.8l0.1-34.9c0-1.6-0.9-3.1-2.3-3.9l0.1-39.3l0-19.9c0-2.4-0.9-4.8-2.7-6.5c-1.7-1.7-4-2.7-6.5-2.7
			L749.3,164.7L749.3,164.7z"/>
	</g>
	<g>
		<path class="st1" d="M819.1,442.6L819.1,442.6c-4.2,0-7.7-3.5-7.7-7.7l0,0c0-4.2,3.4-7.7,7.7-7.7l0,0c4.2,0,7.7,3.5,7.7,7.7l0,0
			C826.7,439.2,823.3,442.6,819.1,442.6z"/>
	</g>
	<g>
		<g>
			<path class="st0" d="M791.1,182.7L791.1,182.7c-1.7,0-3.1-1.4-3.1-3.1l0,0c0-1.7,1.4-3.1,3.1-3.1l0,0c1.7,0,3.1,1.4,3.1,3.1l0,0
				C794.2,181.3,792.8,182.7,791.1,182.7z"/>
		</g>
	</g>
	<g>
		<path class="st0" d="M804.2,179.4l31,0c0.1,0,0.2,0.1,0.2,0.2c0,0.1-0.1,0.1-0.1,0.1l-31,0c0,0-0.1,0-0.1,0c0,0,0-0.1,0-0.1
			C804,179.5,804.1,179.4,804.2,179.4 M804.2,178.4c-0.6,0-1.2,0.5-1.2,1.1c0,0.6,0.5,1.2,1.1,1.2c0,0,0,0,0,0l31,0c0,0,0,0,0,0
			c0.6,0,1.1-0.5,1.1-1.1c0-0.6-0.5-1.1-1.1-1.2L804.2,178.4L804.2,178.4z"/>
	</g>
	<g>
		<path class="st0" d="M745,194.8l148.9,0.2l-0.4,223.1L744.7,418L745,194.8 M744,193.8L743.6,419l150.9,0.2l0.4-225.1L744,193.8
			L744,193.8z"/>
	</g>
</g>
<g>
	<rect x="9.2" y="13.5" class="st2" width="696.3" height="439.1"/>
	<circle class="st0" cx="24.1" cy="31.5" r="4.7"/>
	<circle class="st0" cx="39" cy="31.5" r="4.7"/>
	<circle class="st0" cx="54.7" cy="31.5" r="4.7"/>
	<line class="st2" x1="9.2" y1="67.9" x2="705.5" y2="67.9"/>
	<polyline class="st2" points="8.7,43.3 68,43.3 88,23.3 166.8,23.3 186.6,43.1 705,43.1 	"/>
	<polygon class="st2" points="179.4,23.7 195.1,37.8 286,37.8 271.9,23.7 	"/>
	<path class="st2" d="M673,61.3H68.4c-1.1,0-2-0.9-2-2v-7c0-1.1,0.9-2,2-2H673c1.1,0,2,0.9,2,2v7C675,60.5,674.1,61.3,673,61.3z"/>
	<line class="st2" x1="682.8" y1="48.8" x2="698.5" y2="48.8"/>
	<line class="st2" x1="682.8" y1="53.5" x2="698.5" y2="53.5"/>
	<line class="st2" x1="682.8" y1="58.2" x2="698.5" y2="58.2"/>
	<line class="st2" x1="682.8" y1="62.9" x2="698.5" y2="62.9"/>
	<polygon class="st0" points="44.5,50.4 44.5,59.8 55.5,55.1 	"/>
	<polygon class="st0" points="35.1,50.4 35.1,59.8 24.1,55.1 	"/>
</g>
</svg>
